<?xml version="1.0" encoding="UTF-8" standalone="no"?>
<svg
   viewBox="0 0 99.915695 95.239997"
   version="1.1"
   id="svg3"
   sodipodi:docname="LOGO.svg"
   width="99.915695"
   height="95.239998"
   xmlns:inkscape="http://www.inkscape.org/namespaces/inkscape"
   xmlns:sodipodi="http://sodipodi.sourceforge.net/DTD/sodipodi-0.dtd"
   xmlns="http://www.w3.org/2000/svg"
   xmlns:svg="http://www.w3.org/2000/svg">
  <sodipodi:namedview
     id="namedview3"
     pagecolor="#ffffff"
     bordercolor="#000000"
     borderopacity="0.25"
     inkscape:showpageshadow="2"
     inkscape:pageopacity="0.0"
     inkscape:pagecheckerboard="0"
     inkscape:deskcolor="#d1d1d1" />
  <defs
     id="defs1">
    <style
       id="style1">.cls-1{fill:#abd407;}.cls-2{fill:#656565;}.cls-3{fill:#7fb2fe;}.cls-4{font-size:24px;fill:#666;font-family:Impact;}.cls-5{fill:#80b3ff;}</style>
  </defs>
  <g
     id="Capa_6_Imagen"
     data-name="Capa 6 Imagen"
     transform="translate(0.005699)">
    <path
       class="cls-1"
       d="m 133.19,98.58 a 2.83,2.83 0 0 1 -2.65,0.93 C 128.28,99.36 126,99.34 123.73,99.3 a 2.5,2.5 0 0 1 -2,-0.84 c -1.11,-1.23 -2.3,-2.39 -3.35,-3.47 1.7,0 3.51,0 5.32,0 1.81,0 3.43,0.13 5.13,0.28 1,0.09 1,-0.21 0.82,-1 -2.22,-8.93 -4.37,-17.87 -6.6,-26.79 -2.16,-8.65 -4.4,-17.28 -6.58,-25.93 A 3.72,3.72 0 0 0 113.3,38.41 C 107,37 100.81,35.44 94.58,34 a 1.32,1.32 0 0 1 -0.73,-2.18 c 0.24,-0.31 0.5,-0.14 0.75,-0.08 l 21.48,5.21 c 1.4,0.34 1.9,1.44 2.22,2.69 1.92,7.53 3.88,15 5.78,22.57 q 4.38,17.37 8.73,34.75 c 0.08,0.32 0,0.74 0.38,1 z"
       transform="translate(-33.28,-17.46)"
       id="path1" />
    <path
       class="cls-2"
       d="M 35.78,17.46 A 35.54,35.54 0 0 0 41.69,19 c 8.84,2.19 17.7,4.3 26.56,6.42 l 22.53,5.38 c 0.59,0.14 1.27,0.17 1,1.17 -0.27,1 -0.56,1.06 -1.49,0.83 -7.8,-1.92 -15.63,-3.77 -23.45,-5.64 Q 51.71,23.57 36.57,20 c -1.12,-0.27 -1.2,-0.15 -1.06,1 0.6,4.48 1.15,9 1.75,13.44 0.6,4.44 1.26,9.1 1.86,13.66 0.6,4.56 1.14,9 1.73,13.56 0.5,3.85 1,7.71 1.58,11.54 0.14,0.94 0,1.41 -1,1.57 a 4.82,4.82 0 0 0 -1,0.32 c -0.61,0.28 -0.78,0 -0.84,-0.57 -0.41,-3.74 -0.8,-7.49 -1.24,-11.23 -0.52,-4.41 -1.09,-8.81 -1.61,-13.22 -0.35,-2.95 -0.65,-5.91 -1,-8.86 C 35.21,36.6 34.65,32 34.11,27.39 33.84,25.15 33.69,22.88 33.32,20.66 a 3,3 0 0 1 1.49,-3.14 z"
       transform="translate(-33.28,-17.46)"
       id="path2" />
    <path
       class="cls-3"
       d="M 107.88,112.7 H 59.21 c -2.06,0 -3.91,-0.55 -4.77,-2.64 a 5.75,5.75 0 0 1 0,-3.86 c 0.76,-2.59 1.76,-5.1 2.75,-7.61 0.61,-1.57 0.57,-1.62 -1.08,-1.68 Q 50.46,96.7 44.8,96.43 A 3.41,3.41 0 0 1 42,94 c -0.37,-2.66 -0.67,-5.34 -1,-8 -0.3,-2.48 -0.57,-5 -0.92,-7.42 a 1.92,1.92 0 0 1 2.28,-2.41 c 0.43,0 0.35,0.36 0.39,0.61 0.23,1.52 0.47,3 0.68,4.57 0.42,3.06 0.81,6.12 1.22,9.18 a 0.92,0.92 0 0 0 1,0.91 c 4.09,0.14 8.18,0.27 12.27,0.5 5,0.27 10.07,0.53 15.11,0.74 3.05,0.12 6.1,0.32 9.16,0.46 5.16,0.23 10.31,0.53 15.47,0.73 3.13,0.12 6.26,0.37 9.4,0.46 2.74,0.08 5.47,0.3 8.2,0.44 a 1.39,1.39 0 0 1 1,0.4 c 1.35,1.27 2.72,2.52 4.16,3.85 -1.55,0.31 -3,-0.1 -4.43,-0.13 -4,-0.07 -8,-0.1 -12,-0.28 -4.93,-0.22 -9.86,-0.29 -14.79,-0.52 -3.49,-0.16 -7,0 -10.47,-0.4 -1,-0.12 -1.46,0.16 -1.61,1.2 -0.37,2.66 -1.13,5.26 -1.32,8 -0.22,3.08 1.22,4.72 4.56,4.9 2.5,0.13 5,0.23 7.51,0.24 5.73,0 11.46,0.39 17.2,0.29 a 22.42,22.42 0 0 1 2.82,0.27 z"
       transform="translate(-33.28,-17.46)"
       id="path3" />
  </g>
</svg>
